<svg width="64" height="64" viewBox="0 0 64 64" fill="none" xmlns="http://www.w3.org/2000/svg">
  <rect x="2" y="2" width="60" height="60" rx="14" fill="#0C1714"/>
  <rect x="3" y="3" width="58" height="58" rx="13" stroke="#B6FF24" stroke-width="2"/>
  <path d="M15 17H49V25H28C25.8 25 24 26.8 24 29C24 31.2 25.8 33 28 33H36C44.3 33 51 39.7 51 48V49H15V41H36C38.2 41 40 39.2 40 37C40 34.8 38.2 33 36 33H28C19.7 33 13 26.3 13 18V17H15Z" fill="#F1EFE5"/>
  <path d="M45 11H54L19 53H10L45 11Z" fill="#B6FF24"/>
</svg>
